<svg width="1920" height="1080" viewBox="0 0 1920 1080" xmlns="http://www.w3.org/2000/svg"><rect width="1920" height="1080" fill="#219ebc"/><path d="M 0,1080 C 0,1080 0,180 0,180 C -20.38717948717948,160.11282051282052 -40.77435897435896,140.225641025641 177,135 C 394.77435897435896,129.774358974359 850.7102564102563,139.21025641025642 924,132 C 997.2897435897437,124.78974358974358 687.9333333333334,100.93333333333334 701,116 C 714.0666666666666,131.06666666666666 1049.5564102564101,185.0564102564103 1279,213 C 1508.4435897435899,240.9435897435897 1631.8410256410257,242.84102564102562 1721,233 C 1810.1589743589743,223.15897435897438 1865.0794871794872,201.5794871794872 1920,180 C 1920,180 1920,1080 1920,1080 Z" fill="#fb8500" opacity="0.09999999999999999"/><path d="M 0,1080 C 0,1080 0,360 0,360 C 89.89487179487176,371.8128205128205 179.78974358974352,383.625641025641 270,370 C 360.2102564102565,356.374358974359 450.7358974358975,317.31025641025644 643,330 C 835.2641025641025,342.68974358974356 1129.2666666666669,407.1333333333333 1136,403 C 1142.7333333333331,398.8666666666667 862.197435897436,326.1564102564102 994,303 C 1125.802564102564,279.8435897435898 1669.9435897435897,306.24102564102566 1893,324 C 2116.0564102564103,341.75897435897434 2018.0282051282052,350.87948717948717 1920,360 C 1920,360 1920,1080 1920,1080 Z" fill="#fb8500" opacity="0.19999999999999998"/><path d="M 0,1080 C 0,1080 0,540 0,540 C -2.1256410256410163,561.074358974359 -4.251282051282033,582.148717948718 161,563 C 326.25128205128203,543.851282051282 658.8794871794872,484.47948717948714 730,492 C 801.1205128205128,499.52051282051286 610.7333333333332,573.9333333333333 779,579 C 947.2666666666668,584.0666666666667 1474.1871794871797,519.7871794871796 1579,502 C 1683.8128205128203,484.21282051282043 1366.517948717949,512.9179487179487 1353,527 C 1339.482051282051,541.0820512820513 1629.7410256410255,540.5410256410257 1920,540 C 1920,540 1920,1080 1920,1080 Z" fill="#fb8500" opacity="0.3"/><path d="M 0,1080 C 0,1080 0,720 0,720 C -68.6846153846154,741.9128205128205 -137.3692307692308,763.8256410256411 58,778 C 253.3692307692308,792.1743589743589 712.7923076923078,798.6102564102563 780,785 C 847.2076923076922,771.3897435897437 522.1999999999999,737.7333333333333 554,721 C 585.8000000000001,704.2666666666667 974.4076923076923,704.4564102564103 1252,714 C 1529.5923076923077,723.5435897435897 1696.1692307692306,742.4410256410256 1789,745 C 1881.8307692307694,747.5589743589744 1900.9153846153847,733.7794871794872 1920,720 C 1920,720 1920,1080 1920,1080 Z" fill="#fb8500" opacity="0.39999999999999997"/><path d="M 0,1080 C 0,1080 0,900 0,900 C 302.8128205128205,882.3282051282051 605.625641025641,864.6564102564101 698,857 C 790.374358974359,849.3435897435899 672.3102564102564,851.7025641025642 731,880 C 789.6897435897436,908.2974358974358 1025.1333333333334,962.5333333333334 1188,953 C 1350.8666666666666,943.4666666666666 1441.15641025641,870.1641025641024 1575,840 C 1708.84358974359,809.8358974358976 1886.2410256410255,822.8102564102564 1951,840 C 2015.7589743589745,857.1897435897436 1967.8794871794871,878.5948717948718 1920,900 C 1920,900 1920,1080 1920,1080 Z" fill="#fb8500" opacity="0.49999999999999994"/></svg>